<mxfile host="Electron" modified="2021-05-24T09:53:56.713Z" agent="5.0 (Macintosh; Intel Mac OS X 10_13_6) AppleWebKit/537.36 (KHTML, like Gecko) draw.io/14.6.13 Chrome/89.0.4389.128 Electron/12.0.7 Safari/537.36" etag="_T22qx0Mdu4s4puvT3VE" compressed="false" version="14.6.13" type="device">
  <diagram id="C5RBs43oDa-KdzZeNtuy" name="Page-1">
    <mxGraphModel dx="1406" dy="672" grid="1" gridSize="10" guides="1" tooltips="1" connect="1" arrows="1" fold="1" page="1" pageScale="1" pageWidth="1169" pageHeight="827" math="0" shadow="0">
      <root>
        <mxCell id="WIyWlLk6GJQsqaUBKTNV-0" />
        <mxCell id="WIyWlLk6GJQsqaUBKTNV-1" parent="WIyWlLk6GJQsqaUBKTNV-0" />
        <mxCell id="YPBE2i8zK9lcXEaAE-W4-2" style="edgeStyle=orthogonalEdgeStyle;rounded=0;orthogonalLoop=1;jettySize=auto;html=1;exitX=0.5;exitY=1;exitDx=0;exitDy=0;" parent="WIyWlLk6GJQsqaUBKTNV-1" edge="1">
          <mxGeometry relative="1" as="geometry">
            <mxPoint x="379.5" y="140" as="sourcePoint" />
            <mxPoint x="379.5" y="140" as="targetPoint" />
          </mxGeometry>
        </mxCell>
        <mxCell id="YPBE2i8zK9lcXEaAE-W4-10" style="edgeStyle=orthogonalEdgeStyle;rounded=0;orthogonalLoop=1;jettySize=auto;html=1;exitX=0.5;exitY=1;exitDx=0;exitDy=0;" parent="WIyWlLk6GJQsqaUBKTNV-1" edge="1">
          <mxGeometry relative="1" as="geometry">
            <mxPoint x="379.5" y="140" as="sourcePoint" />
            <mxPoint x="379.5" y="140" as="targetPoint" />
          </mxGeometry>
        </mxCell>
        <mxCell id="YPBE2i8zK9lcXEaAE-W4-12" value="&lt;p style=&quot;font-size: 14px&quot;&gt;&lt;span style=&quot;font-weight: normal ; font-size: 14px&quot;&gt;&lt;font face=&quot;Courier New&quot; style=&quot;font-size: 14px&quot;&gt;&amp;lt;&amp;lt;interface&amp;gt;&amp;gt;&lt;/font&gt;&lt;br style=&quot;font-size: 14px&quot;&gt;&lt;/span&gt;&lt;font style=&quot;font-family: &amp;#34;courier new&amp;#34; ; font-size: 14px&quot;&gt;&lt;b style=&quot;font-size: 14px&quot;&gt;Iterable&lt;/b&gt;&lt;/font&gt;&lt;/p&gt;" style="text;html=1;align=center;verticalAlign=middle;whiteSpace=wrap;rounded=0;shadow=0;glass=1;strokeWidth=2;labelBackgroundColor=none;fontSize=14;strokeColor=#82b366;fillColor=#d5e8d4;" parent="WIyWlLk6GJQsqaUBKTNV-1" vertex="1">
          <mxGeometry x="515" y="20" width="140" height="70" as="geometry" />
        </mxCell>
        <mxCell id="YPBE2i8zK9lcXEaAE-W4-128" style="edgeStyle=orthogonalEdgeStyle;rounded=0;orthogonalLoop=1;jettySize=auto;html=0;exitX=0.5;exitY=0;exitDx=0;exitDy=0;entryX=0.5;entryY=1;entryDx=0;entryDy=0;fontFamily=Courier New;fontSize=14;fontColor=#000000;" parent="WIyWlLk6GJQsqaUBKTNV-1" target="YPBE2i8zK9lcXEaAE-W4-12" edge="1">
          <mxGeometry relative="1" as="geometry">
            <mxPoint x="585" y="130" as="sourcePoint" />
          </mxGeometry>
        </mxCell>
        <mxCell id="YPBE2i8zK9lcXEaAE-W4-102" value="Java Collections Framework" style="text;html=1;fontSize=24;fontStyle=1;verticalAlign=middle;align=center;shadow=0;glass=0;labelBackgroundColor=none;fontFamily=Courier New;rounded=1;fillColor=#ffffff;" parent="WIyWlLk6GJQsqaUBKTNV-1" vertex="1">
          <mxGeometry x="360" y="760" width="466" height="40" as="geometry" />
        </mxCell>
        <mxCell id="Kpae5eKNH2z2pu_mqt94-7" value="&lt;p style=&quot;font-size: 14px&quot;&gt;&lt;span style=&quot;font-weight: normal ; font-size: 14px&quot;&gt;&lt;font face=&quot;Courier New&quot; style=&quot;font-size: 14px&quot;&gt;&amp;lt;&amp;lt;interface&amp;gt;&amp;gt;&lt;/font&gt;&lt;br style=&quot;font-size: 14px&quot;&gt;&lt;/span&gt;&lt;font face=&quot;courier new&quot;&gt;&lt;b&gt;Collection&lt;/b&gt;&lt;/font&gt;&lt;/p&gt;" style="text;html=1;align=center;verticalAlign=middle;whiteSpace=wrap;rounded=0;shadow=0;glass=1;strokeWidth=2;labelBackgroundColor=none;fontSize=14;strokeColor=#82b366;fillColor=#d5e8d4;" parent="WIyWlLk6GJQsqaUBKTNV-1" vertex="1">
          <mxGeometry x="515" y="130" width="140" height="70" as="geometry" />
        </mxCell>
        <mxCell id="Kpae5eKNH2z2pu_mqt94-30" style="edgeStyle=orthogonalEdgeStyle;rounded=0;orthogonalLoop=1;jettySize=auto;html=0;exitX=0.5;exitY=0;exitDx=0;exitDy=0;entryX=0.5;entryY=1;entryDx=0;entryDy=0;fontFamily=Courier New;fontSize=14;fontColor=#000000;" parent="WIyWlLk6GJQsqaUBKTNV-1" source="Kpae5eKNH2z2pu_mqt94-8" target="Kpae5eKNH2z2pu_mqt94-7" edge="1">
          <mxGeometry relative="1" as="geometry">
            <Array as="points">
              <mxPoint x="260" y="240" />
              <mxPoint x="585" y="240" />
            </Array>
          </mxGeometry>
        </mxCell>
        <mxCell id="Kpae5eKNH2z2pu_mqt94-8" value="&lt;p style=&quot;font-size: 14px&quot;&gt;&lt;span style=&quot;font-weight: normal ; font-size: 14px&quot;&gt;&lt;font face=&quot;Courier New&quot; style=&quot;font-size: 14px&quot;&gt;&amp;lt;&amp;lt;interface&amp;gt;&amp;gt;&lt;/font&gt;&lt;br style=&quot;font-size: 14px&quot;&gt;&lt;/span&gt;&lt;font face=&quot;courier new&quot;&gt;&lt;b&gt;Set&lt;/b&gt;&lt;/font&gt;&lt;/p&gt;" style="text;html=1;align=center;verticalAlign=middle;whiteSpace=wrap;rounded=0;shadow=0;glass=1;strokeWidth=2;labelBackgroundColor=none;fontSize=14;strokeColor=#82b366;fillColor=#d5e8d4;" parent="WIyWlLk6GJQsqaUBKTNV-1" vertex="1">
          <mxGeometry x="190" y="275" width="140" height="70" as="geometry" />
        </mxCell>
        <mxCell id="Kpae5eKNH2z2pu_mqt94-54" style="edgeStyle=orthogonalEdgeStyle;rounded=0;orthogonalLoop=1;jettySize=auto;html=0;exitX=0.5;exitY=0;exitDx=0;exitDy=0;entryX=0.5;entryY=1;entryDx=0;entryDy=0;fontFamily=Courier New;fontSize=14;fontColor=#000000;" parent="WIyWlLk6GJQsqaUBKTNV-1" source="Kpae5eKNH2z2pu_mqt94-9" target="Kpae5eKNH2z2pu_mqt94-7" edge="1">
          <mxGeometry relative="1" as="geometry">
            <Array as="points">
              <mxPoint x="585" y="260" />
              <mxPoint x="585" y="260" />
            </Array>
          </mxGeometry>
        </mxCell>
        <mxCell id="Kpae5eKNH2z2pu_mqt94-9" value="&lt;p style=&quot;font-size: 14px&quot;&gt;&lt;span style=&quot;font-weight: normal ; font-size: 14px&quot;&gt;&lt;font face=&quot;Courier New&quot; style=&quot;font-size: 14px&quot;&gt;&amp;lt;&amp;lt;interface&amp;gt;&amp;gt;&lt;/font&gt;&lt;br style=&quot;font-size: 14px&quot;&gt;&lt;/span&gt;&lt;font face=&quot;courier new&quot;&gt;&lt;b&gt;List&lt;/b&gt;&lt;/font&gt;&lt;/p&gt;" style="text;html=1;align=center;verticalAlign=middle;whiteSpace=wrap;rounded=0;shadow=0;glass=1;strokeWidth=2;labelBackgroundColor=none;fontSize=14;strokeColor=#82b366;fillColor=#d5e8d4;" parent="WIyWlLk6GJQsqaUBKTNV-1" vertex="1">
          <mxGeometry x="515" y="275" width="140" height="70" as="geometry" />
        </mxCell>
        <mxCell id="MUC2MTITVo_juZWyUg5X-10" style="edgeStyle=orthogonalEdgeStyle;rounded=0;orthogonalLoop=1;jettySize=auto;html=1;exitX=0;exitY=0.5;exitDx=0;exitDy=0;dashed=1;startArrow=none;startFill=0;endArrow=classic;endFill=1;entryX=0.5;entryY=1;entryDx=0;entryDy=0;" parent="WIyWlLk6GJQsqaUBKTNV-1" source="Kpae5eKNH2z2pu_mqt94-11" target="Kpae5eKNH2z2pu_mqt94-9" edge="1">
          <mxGeometry relative="1" as="geometry">
            <mxPoint x="580" y="390" as="targetPoint" />
          </mxGeometry>
        </mxCell>
        <mxCell id="Kpae5eKNH2z2pu_mqt94-11" value="&lt;p style=&quot;font-size: 14px&quot;&gt;&lt;font face=&quot;Courier New&quot;&gt;&lt;b&gt;Vector&lt;/b&gt;&lt;/font&gt;&lt;/p&gt;" style="text;html=1;align=center;verticalAlign=middle;whiteSpace=wrap;rounded=0;shadow=0;glass=1;strokeWidth=2;labelBackgroundColor=none;fontSize=14;strokeColor=#10739e;fillColor=#b1ddf0;gradientColor=#ffffff;" parent="WIyWlLk6GJQsqaUBKTNV-1" vertex="1">
          <mxGeometry x="640" y="570" width="140" height="70" as="geometry" />
        </mxCell>
        <mxCell id="MUC2MTITVo_juZWyUg5X-11" style="edgeStyle=orthogonalEdgeStyle;rounded=0;orthogonalLoop=1;jettySize=auto;html=1;exitX=0;exitY=0.5;exitDx=0;exitDy=0;dashed=1;startArrow=none;startFill=0;endArrow=none;endFill=0;" parent="WIyWlLk6GJQsqaUBKTNV-1" source="Kpae5eKNH2z2pu_mqt94-14" edge="1">
          <mxGeometry relative="1" as="geometry">
            <mxPoint x="590" y="424" as="targetPoint" />
            <Array as="points">
              <mxPoint x="590" y="424" />
              <mxPoint x="590" y="424" />
            </Array>
          </mxGeometry>
        </mxCell>
        <mxCell id="Kpae5eKNH2z2pu_mqt94-14" value="&lt;p style=&quot;font-size: 14px&quot;&gt;&lt;font face=&quot;Courier New&quot;&gt;&lt;b&gt;ArrayList&lt;/b&gt;&lt;/font&gt;&lt;/p&gt;" style="text;html=1;align=center;verticalAlign=middle;whiteSpace=wrap;rounded=0;shadow=0;glass=1;strokeWidth=2;labelBackgroundColor=none;fontSize=14;strokeColor=#10739e;fillColor=#b1ddf0;gradientColor=#ffffff;" parent="WIyWlLk6GJQsqaUBKTNV-1" vertex="1">
          <mxGeometry x="640" y="389" width="140" height="70" as="geometry" />
        </mxCell>
        <mxCell id="MUC2MTITVo_juZWyUg5X-0" style="edgeStyle=orthogonalEdgeStyle;rounded=0;orthogonalLoop=1;jettySize=auto;html=1;entryX=0.5;entryY=1;entryDx=0;entryDy=0;" parent="WIyWlLk6GJQsqaUBKTNV-1" source="Kpae5eKNH2z2pu_mqt94-16" target="Kpae5eKNH2z2pu_mqt94-11" edge="1">
          <mxGeometry relative="1" as="geometry" />
        </mxCell>
        <mxCell id="Kpae5eKNH2z2pu_mqt94-16" value="&lt;p style=&quot;font-size: 14px&quot;&gt;&lt;font face=&quot;Courier New&quot;&gt;&lt;b&gt;Stack&lt;/b&gt;&lt;/font&gt;&lt;/p&gt;" style="text;html=1;align=center;verticalAlign=middle;whiteSpace=wrap;rounded=0;shadow=0;glass=1;strokeWidth=2;labelBackgroundColor=none;fontSize=14;strokeColor=#10739e;fillColor=#b1ddf0;gradientColor=#ffffff;" parent="WIyWlLk6GJQsqaUBKTNV-1" vertex="1">
          <mxGeometry x="640" y="660" width="140" height="70" as="geometry" />
        </mxCell>
        <mxCell id="MUC2MTITVo_juZWyUg5X-12" style="edgeStyle=orthogonalEdgeStyle;rounded=0;orthogonalLoop=1;jettySize=auto;html=1;exitX=0;exitY=0.5;exitDx=0;exitDy=0;dashed=1;startArrow=none;startFill=0;endArrow=none;endFill=0;" parent="WIyWlLk6GJQsqaUBKTNV-1" source="Kpae5eKNH2z2pu_mqt94-17" edge="1">
          <mxGeometry relative="1" as="geometry">
            <mxPoint x="590" y="515" as="targetPoint" />
            <Array as="points">
              <mxPoint x="600" y="515" />
              <mxPoint x="600" y="515" />
            </Array>
          </mxGeometry>
        </mxCell>
        <mxCell id="MUC2MTITVo_juZWyUg5X-17" style="edgeStyle=orthogonalEdgeStyle;rounded=0;orthogonalLoop=1;jettySize=auto;html=1;dashed=1;startArrow=none;startFill=0;endArrow=none;endFill=0;exitX=1;exitY=0.5;exitDx=0;exitDy=0;" parent="WIyWlLk6GJQsqaUBKTNV-1" source="Kpae5eKNH2z2pu_mqt94-17" edge="1">
          <mxGeometry relative="1" as="geometry">
            <mxPoint x="980" y="470" as="targetPoint" />
            <Array as="points">
              <mxPoint x="880" y="515" />
              <mxPoint x="880" y="480" />
              <mxPoint x="980" y="480" />
            </Array>
          </mxGeometry>
        </mxCell>
        <mxCell id="Kpae5eKNH2z2pu_mqt94-17" value="&lt;p style=&quot;font-size: 14px&quot;&gt;&lt;font face=&quot;Courier New&quot;&gt;&lt;b&gt;LinkedList&lt;/b&gt;&lt;/font&gt;&lt;/p&gt;" style="text;html=1;align=center;verticalAlign=middle;whiteSpace=wrap;rounded=0;shadow=0;glass=1;strokeWidth=2;labelBackgroundColor=none;fontSize=14;strokeColor=#10739e;fillColor=#b1ddf0;gradientColor=#ffffff;" parent="WIyWlLk6GJQsqaUBKTNV-1" vertex="1">
          <mxGeometry x="640" y="480" width="140" height="70" as="geometry" />
        </mxCell>
        <mxCell id="Kpae5eKNH2z2pu_mqt94-55" style="edgeStyle=orthogonalEdgeStyle;rounded=0;orthogonalLoop=1;jettySize=auto;html=0;exitX=0.5;exitY=0;exitDx=0;exitDy=0;entryX=0.5;entryY=1;entryDx=0;entryDy=0;fontFamily=Courier New;fontSize=14;fontColor=#000000;" parent="WIyWlLk6GJQsqaUBKTNV-1" source="Kpae5eKNH2z2pu_mqt94-19" target="Kpae5eKNH2z2pu_mqt94-7" edge="1">
          <mxGeometry relative="1" as="geometry">
            <Array as="points">
              <mxPoint x="980" y="240" />
              <mxPoint x="585" y="240" />
            </Array>
          </mxGeometry>
        </mxCell>
        <mxCell id="Kpae5eKNH2z2pu_mqt94-19" value="&lt;p style=&quot;font-size: 14px&quot;&gt;&lt;span style=&quot;font-weight: normal ; font-size: 14px&quot;&gt;&lt;font face=&quot;Courier New&quot; style=&quot;font-size: 14px&quot;&gt;&amp;lt;&amp;lt;interface&amp;gt;&amp;gt;&lt;/font&gt;&lt;br style=&quot;font-size: 14px&quot;&gt;&lt;/span&gt;&lt;font face=&quot;courier new&quot;&gt;&lt;b&gt;Queue&lt;/b&gt;&lt;/font&gt;&lt;/p&gt;" style="text;html=1;align=center;verticalAlign=middle;whiteSpace=wrap;rounded=0;shadow=0;glass=1;strokeWidth=2;labelBackgroundColor=none;fontSize=14;strokeColor=#82b366;fillColor=#d5e8d4;" parent="WIyWlLk6GJQsqaUBKTNV-1" vertex="1">
          <mxGeometry x="910" y="275" width="140" height="70" as="geometry" />
        </mxCell>
        <mxCell id="Kpae5eKNH2z2pu_mqt94-57" style="edgeStyle=orthogonalEdgeStyle;rounded=0;orthogonalLoop=1;jettySize=auto;html=0;exitX=0.5;exitY=0;exitDx=0;exitDy=0;entryX=0.5;entryY=1;entryDx=0;entryDy=0;fontFamily=Courier New;fontSize=14;fontColor=#000000;" parent="WIyWlLk6GJQsqaUBKTNV-1" source="Kpae5eKNH2z2pu_mqt94-20" target="Kpae5eKNH2z2pu_mqt94-19" edge="1">
          <mxGeometry relative="1" as="geometry" />
        </mxCell>
        <mxCell id="Kpae5eKNH2z2pu_mqt94-20" value="&lt;p style=&quot;font-size: 14px&quot;&gt;&lt;span style=&quot;font-weight: normal ; font-size: 14px&quot;&gt;&lt;font face=&quot;Courier New&quot; style=&quot;font-size: 14px&quot;&gt;&amp;lt;&amp;lt;interface&amp;gt;&amp;gt;&lt;/font&gt;&lt;br style=&quot;font-size: 14px&quot;&gt;&lt;/span&gt;&lt;font face=&quot;courier new&quot;&gt;&lt;b&gt;Deque&lt;/b&gt;&lt;/font&gt;&lt;/p&gt;" style="text;html=1;align=center;verticalAlign=middle;whiteSpace=wrap;rounded=0;shadow=0;glass=1;strokeWidth=2;labelBackgroundColor=none;fontSize=14;strokeColor=#82b366;fillColor=#d5e8d4;" parent="WIyWlLk6GJQsqaUBKTNV-1" vertex="1">
          <mxGeometry x="910" y="389" width="140" height="70" as="geometry" />
        </mxCell>
        <mxCell id="Kpae5eKNH2z2pu_mqt94-58" style="edgeStyle=orthogonalEdgeStyle;rounded=0;orthogonalLoop=1;jettySize=auto;html=0;exitX=0.5;exitY=0;exitDx=0;exitDy=0;fontFamily=Courier New;fontSize=14;fontColor=#000000;dashed=1;" parent="WIyWlLk6GJQsqaUBKTNV-1" source="Kpae5eKNH2z2pu_mqt94-21" edge="1">
          <mxGeometry relative="1" as="geometry">
            <mxPoint x="980" y="460" as="targetPoint" />
          </mxGeometry>
        </mxCell>
        <mxCell id="MUC2MTITVo_juZWyUg5X-7" value="" style="edgeStyle=none;rounded=0;orthogonalLoop=1;jettySize=auto;html=1;dashed=1;" parent="WIyWlLk6GJQsqaUBKTNV-1" source="Kpae5eKNH2z2pu_mqt94-21" target="Kpae5eKNH2z2pu_mqt94-20" edge="1">
          <mxGeometry relative="1" as="geometry" />
        </mxCell>
        <mxCell id="Kpae5eKNH2z2pu_mqt94-21" value="&lt;p&gt;&lt;/p&gt;&lt;div style=&quot;text-align: justify&quot;&gt;&lt;br&gt;&lt;/div&gt;&lt;p&gt;&lt;/p&gt;" style="text;html=1;align=center;verticalAlign=middle;whiteSpace=wrap;rounded=0;shadow=0;glass=1;strokeWidth=2;labelBackgroundColor=none;fontSize=14;strokeColor=#10739e;fillColor=#b1ddf0;gradientColor=#ffffff;" parent="WIyWlLk6GJQsqaUBKTNV-1" vertex="1">
          <mxGeometry x="910" y="500" width="140" height="70" as="geometry" />
        </mxCell>
        <mxCell id="MUC2MTITVo_juZWyUg5X-16" style="edgeStyle=orthogonalEdgeStyle;rounded=0;orthogonalLoop=1;jettySize=auto;html=1;exitX=0;exitY=0.5;exitDx=0;exitDy=0;dashed=1;startArrow=none;startFill=0;endArrow=none;endFill=0;" parent="WIyWlLk6GJQsqaUBKTNV-1" source="Kpae5eKNH2z2pu_mqt94-23" edge="1">
          <mxGeometry relative="1" as="geometry">
            <mxPoint x="60" y="424" as="targetPoint" />
          </mxGeometry>
        </mxCell>
        <mxCell id="Kpae5eKNH2z2pu_mqt94-23" value="&lt;p style=&quot;font-size: 14px&quot;&gt;&lt;font face=&quot;Courier New&quot;&gt;&lt;b&gt;HashSet&lt;/b&gt;&lt;/font&gt;&lt;/p&gt;" style="text;html=1;align=center;verticalAlign=middle;whiteSpace=wrap;rounded=0;shadow=0;glass=1;strokeWidth=2;labelBackgroundColor=none;fontSize=14;strokeColor=#10739e;fillColor=#b1ddf0;gradientColor=#ffffff;" parent="WIyWlLk6GJQsqaUBKTNV-1" vertex="1">
          <mxGeometry x="110" y="389" width="140" height="70" as="geometry" />
        </mxCell>
        <mxCell id="MUC2MTITVo_juZWyUg5X-15" style="edgeStyle=orthogonalEdgeStyle;rounded=0;orthogonalLoop=1;jettySize=auto;html=1;exitX=0;exitY=0.5;exitDx=0;exitDy=0;dashed=1;startArrow=none;startFill=0;endArrow=none;endFill=0;" parent="WIyWlLk6GJQsqaUBKTNV-1" source="Kpae5eKNH2z2pu_mqt94-24" edge="1">
          <mxGeometry relative="1" as="geometry">
            <mxPoint x="260" y="350" as="targetPoint" />
            <Array as="points">
              <mxPoint x="60" y="535" />
              <mxPoint x="60" y="370" />
              <mxPoint x="260" y="370" />
            </Array>
          </mxGeometry>
        </mxCell>
        <mxCell id="Kpae5eKNH2z2pu_mqt94-24" value="&lt;p style=&quot;font-size: 14px&quot;&gt;&lt;font face=&quot;Courier New&quot;&gt;&lt;b&gt;LinkedHashSet&lt;/b&gt;&lt;/font&gt;&lt;/p&gt;" style="text;html=1;align=center;verticalAlign=middle;whiteSpace=wrap;rounded=0;shadow=0;glass=1;strokeWidth=2;labelBackgroundColor=none;fontSize=14;strokeColor=#10739e;fillColor=#b1ddf0;gradientColor=#ffffff;" parent="WIyWlLk6GJQsqaUBKTNV-1" vertex="1">
          <mxGeometry x="110" y="500" width="140" height="70" as="geometry" />
        </mxCell>
        <mxCell id="Kpae5eKNH2z2pu_mqt94-47" style="edgeStyle=orthogonalEdgeStyle;rounded=0;orthogonalLoop=1;jettySize=auto;html=0;exitX=0.5;exitY=0;exitDx=0;exitDy=0;entryX=0.5;entryY=1;entryDx=0;entryDy=0;fontFamily=Courier New;fontSize=14;fontColor=#000000;" parent="WIyWlLk6GJQsqaUBKTNV-1" source="Kpae5eKNH2z2pu_mqt94-25" target="Kpae5eKNH2z2pu_mqt94-8" edge="1">
          <mxGeometry relative="1" as="geometry">
            <Array as="points">
              <mxPoint x="380" y="370" />
              <mxPoint x="260" y="370" />
            </Array>
          </mxGeometry>
        </mxCell>
        <mxCell id="Kpae5eKNH2z2pu_mqt94-25" value="&lt;p style=&quot;font-size: 14px&quot;&gt;&lt;span style=&quot;font-weight: normal ; font-size: 14px&quot;&gt;&lt;font face=&quot;Courier New&quot; style=&quot;font-size: 14px&quot;&gt;&amp;lt;&amp;lt;interface&amp;gt;&amp;gt;&lt;/font&gt;&lt;br style=&quot;font-size: 14px&quot;&gt;&lt;/span&gt;&lt;font face=&quot;courier new&quot;&gt;&lt;b&gt;SortedSet&lt;/b&gt;&lt;/font&gt;&lt;/p&gt;" style="text;html=1;align=center;verticalAlign=middle;whiteSpace=wrap;rounded=0;shadow=0;glass=1;strokeWidth=2;labelBackgroundColor=none;fontSize=14;strokeColor=#82b366;fillColor=#d5e8d4;" parent="WIyWlLk6GJQsqaUBKTNV-1" vertex="1">
          <mxGeometry x="310" y="389" width="140" height="70" as="geometry" />
        </mxCell>
        <mxCell id="MUC2MTITVo_juZWyUg5X-13" style="edgeStyle=orthogonalEdgeStyle;rounded=0;orthogonalLoop=1;jettySize=auto;html=1;dashed=1;startArrow=none;startFill=0;endArrow=classic;endFill=1;" parent="WIyWlLk6GJQsqaUBKTNV-1" source="Kpae5eKNH2z2pu_mqt94-27" edge="1">
          <mxGeometry relative="1" as="geometry">
            <mxPoint x="380" y="460" as="targetPoint" />
          </mxGeometry>
        </mxCell>
        <mxCell id="Kpae5eKNH2z2pu_mqt94-27" value="&lt;p style=&quot;font-size: 14px&quot;&gt;&lt;font face=&quot;Courier New&quot;&gt;&lt;b&gt;TreeSet&lt;/b&gt;&lt;/font&gt;&lt;/p&gt;" style="text;html=1;align=center;verticalAlign=middle;whiteSpace=wrap;rounded=0;shadow=0;glass=1;strokeWidth=2;labelBackgroundColor=none;fontSize=14;strokeColor=#10739e;fillColor=#b1ddf0;gradientColor=#ffffff;" parent="WIyWlLk6GJQsqaUBKTNV-1" vertex="1">
          <mxGeometry x="310" y="500" width="140" height="70" as="geometry" />
        </mxCell>
        <mxCell id="Kpae5eKNH2z2pu_mqt94-35" value="&lt;b&gt;ArrayDeque&lt;/b&gt;" style="text;html=1;strokeColor=none;fillColor=none;align=center;verticalAlign=middle;whiteSpace=wrap;rounded=0;shadow=0;glass=1;labelBackgroundColor=none;fontFamily=Courier New;fontSize=14;fontColor=#000000;" parent="WIyWlLk6GJQsqaUBKTNV-1" vertex="1">
          <mxGeometry x="930" y="525" width="100" height="20" as="geometry" />
        </mxCell>
        <mxCell id="Kpae5eKNH2z2pu_mqt94-61" value="&lt;p style=&quot;font-size: 14px&quot;&gt;&lt;br&gt;&lt;/p&gt;" style="text;html=1;align=center;verticalAlign=middle;whiteSpace=wrap;rounded=0;shadow=0;glass=1;strokeWidth=2;labelBackgroundColor=none;fontSize=14;strokeColor=#82b366;fillColor=#d5e8d4;" parent="WIyWlLk6GJQsqaUBKTNV-1" vertex="1">
          <mxGeometry x="960" y="20" width="60" height="20" as="geometry" />
        </mxCell>
        <mxCell id="Kpae5eKNH2z2pu_mqt94-62" value="&lt;p style=&quot;font-size: 14px&quot;&gt;&lt;br&gt;&lt;/p&gt;" style="text;html=1;align=center;verticalAlign=middle;whiteSpace=wrap;rounded=0;shadow=0;glass=1;strokeWidth=2;labelBackgroundColor=none;fontSize=14;strokeColor=#10739e;fillColor=#b1ddf0;gradientColor=#ffffff;" parent="WIyWlLk6GJQsqaUBKTNV-1" vertex="1">
          <mxGeometry x="960" y="60" width="60" height="20" as="geometry" />
        </mxCell>
        <mxCell id="MUC2MTITVo_juZWyUg5X-21" value="" style="endArrow=classic;html=1;dashed=1;" parent="WIyWlLk6GJQsqaUBKTNV-1" edge="1">
          <mxGeometry width="50" height="50" relative="1" as="geometry">
            <mxPoint x="1000" y="120" as="sourcePoint" />
            <mxPoint x="1000" y="90" as="targetPoint" />
          </mxGeometry>
        </mxCell>
        <mxCell id="MUC2MTITVo_juZWyUg5X-23" value="" style="endArrow=classic;html=1;" parent="WIyWlLk6GJQsqaUBKTNV-1" edge="1">
          <mxGeometry width="50" height="50" relative="1" as="geometry">
            <mxPoint x="1000.5" y="150" as="sourcePoint" />
            <mxPoint x="1000" y="120" as="targetPoint" />
            <Array as="points">
              <mxPoint x="1000" y="120" />
            </Array>
          </mxGeometry>
        </mxCell>
        <mxCell id="MUC2MTITVo_juZWyUg5X-26" value="&lt;b style=&quot;line-height: 130%&quot;&gt;interface&lt;br&gt;&lt;br&gt;class&lt;br&gt;&lt;br&gt;&lt;div&gt;&lt;b&gt;implements&lt;/b&gt;&lt;/div&gt;&lt;br&gt;&lt;div&gt;&lt;b&gt;extends&lt;/b&gt;&lt;/div&gt;&lt;/b&gt;" style="text;html=1;strokeColor=none;fillColor=none;align=left;verticalAlign=middle;whiteSpace=wrap;rounded=0;shadow=0;glass=1;labelBackgroundColor=none;fontFamily=Courier New;fontSize=14;fontColor=#000000;strokeWidth=2;" parent="WIyWlLk6GJQsqaUBKTNV-1" vertex="1">
          <mxGeometry x="1030" y="10" width="100" height="155" as="geometry" />
        </mxCell>
        <mxCell id="MUC2MTITVo_juZWyUg5X-33" style="edgeStyle=orthogonalEdgeStyle;rounded=0;orthogonalLoop=1;jettySize=auto;html=1;exitX=0.5;exitY=1;exitDx=0;exitDy=0;startArrow=none;startFill=0;endArrow=none;endFill=0;" parent="WIyWlLk6GJQsqaUBKTNV-1" edge="1">
          <mxGeometry relative="1" as="geometry">
            <mxPoint x="1075" y="40" as="sourcePoint" />
            <mxPoint x="1075" y="40" as="targetPoint" />
          </mxGeometry>
        </mxCell>
        <mxCell id="MUC2MTITVo_juZWyUg5X-35" style="edgeStyle=orthogonalEdgeStyle;rounded=0;orthogonalLoop=1;jettySize=auto;html=1;exitX=0.5;exitY=1;exitDx=0;exitDy=0;startArrow=none;startFill=0;endArrow=none;endFill=0;" parent="WIyWlLk6GJQsqaUBKTNV-1" edge="1">
          <mxGeometry relative="1" as="geometry">
            <mxPoint x="1070" y="150" as="sourcePoint" />
            <mxPoint x="1070" y="150" as="targetPoint" />
          </mxGeometry>
        </mxCell>
      </root>
    </mxGraphModel>
  </diagram>
</mxfile>
